<svg width="320" height="200" viewBox="0 0 320 200" fill="none" xmlns="http://www.w3.org/2000/svg">
<g filter="url(#filter0_b_124_517)">
<rect x="9" y="39" width="137" height="18" rx="9" fill="url(#paint0_linear_124_517)"/>
<rect x="8.5" y="38.5" width="138" height="19" rx="9.5" stroke="white"/>
</g>
<rect x="9" y="68" width="137" height="19" rx="9.5" fill="url(#paint1_linear_124_517)"/>
<g filter="url(#filter1_b_124_517)">
<rect x="168" y="82" width="143" height="19" rx="9.5" fill="url(#paint2_linear_124_517)"/>
<rect x="167.5" y="81.5" width="144" height="20" rx="10" stroke="white"/>
</g>
<g filter="url(#filter2_b_124_517)">
<rect x="168" y="112" width="143" height="19" rx="9.5" fill="url(#paint3_linear_124_517)"/>
<rect x="167.5" y="111.5" width="144" height="20" rx="10" stroke="white"/>
</g>
<g filter="url(#filter3_b_124_517)">
<rect x="168" y="142" width="143" height="19" rx="9.5" fill="url(#paint4_linear_124_517)"/>
<rect x="167.5" y="141.5" width="144" height="20" rx="10" stroke="white"/>
</g>
<g filter="url(#filter4_b_124_517)">
<rect x="9" y="98" width="137" height="63" rx="12" fill="url(#paint5_linear_124_517)"/>
<rect x="8.5" y="97.5" width="138" height="64" rx="12.5" stroke="white"/>
</g>
<g filter="url(#filter5_b_124_517)">
<rect x="168" y="39" width="143" height="32" rx="12" fill="url(#paint6_linear_124_517)"/>
<rect x="167.5" y="38.5" width="144" height="33" rx="12.5" stroke="white"/>
</g>
<g filter="url(#filter6_d_124_517)">
<path d="M78.6097 96.7741L55.0834 82.4537L60.1978 110.072L66.3351 99.8427L78.6097 96.7741Z" fill="#85C83E"/>
<path d="M78.8578 97.7664L81.2321 97.1728L79.1415 95.9003L55.6152 81.5799L53.661 80.3904L54.0776 82.6399L59.192 110.258L59.6842 112.916L61.0749 110.598L66.9942 100.732L78.8578 97.7664Z" stroke="white" stroke-width="2.04577"/>
</g>
<g filter="url(#filter7_d_124_517)">
<rect x="74.6111" y="112.602" width="118.444" height="31.2222" rx="5.48148" fill="#85C83E"/>
<path d="M84.5229 120.76H86.5395L91.2813 132.342H91.4448L96.1866 120.76H98.2033V134.713H96.6227V124.112H96.4864L92.1261 134.713H90.6L86.2398 124.112H86.1035V134.713H84.5229V120.76ZM105.856 134.931C104.848 134.931 103.978 134.708 103.247 134.263C102.52 133.814 101.959 133.187 101.564 132.383C101.174 131.574 100.978 130.634 100.978 129.562C100.978 128.49 101.174 127.546 101.564 126.728C101.959 125.906 102.509 125.266 103.213 124.807C103.922 124.344 104.748 124.112 105.693 124.112C106.238 124.112 106.776 124.203 107.308 124.385C107.839 124.566 108.323 124.861 108.759 125.27C109.195 125.674 109.542 126.21 109.801 126.878C110.06 127.546 110.189 128.368 110.189 129.344V130.026H102.123V128.636H108.554C108.554 128.045 108.436 127.518 108.2 127.055C107.968 126.592 107.637 126.226 107.205 125.958C106.778 125.69 106.274 125.556 105.693 125.556C105.052 125.556 104.498 125.715 104.031 126.033C103.567 126.347 103.211 126.755 102.961 127.26C102.711 127.764 102.586 128.304 102.586 128.881V129.808C102.586 130.598 102.722 131.268 102.995 131.817C103.272 132.362 103.656 132.778 104.146 133.064C104.637 133.346 105.207 133.487 105.856 133.487C106.279 133.487 106.66 133.428 107.001 133.309C107.346 133.187 107.644 133.005 107.893 132.764C108.143 132.519 108.336 132.215 108.473 131.851L110.026 132.288C109.862 132.814 109.588 133.278 109.202 133.677C108.815 134.073 108.339 134.381 107.771 134.604C107.203 134.822 106.565 134.931 105.856 134.931ZM119.735 128.745V130.244H113.958V128.745H119.735ZM114.339 124.248V134.713H112.731V124.248H114.339ZM120.961 124.248V134.713H119.353V124.248H120.961ZM128.381 134.931C127.373 134.931 126.503 134.708 125.772 134.263C125.045 133.814 124.484 133.187 124.089 132.383C123.698 131.574 123.503 130.634 123.503 129.562C123.503 128.49 123.698 127.546 124.089 126.728C124.484 125.906 125.034 125.266 125.738 124.807C126.446 124.344 127.273 124.112 128.218 124.112C128.763 124.112 129.301 124.203 129.832 124.385C130.364 124.566 130.847 124.861 131.283 125.27C131.719 125.674 132.067 126.21 132.326 126.878C132.585 127.546 132.714 128.368 132.714 129.344V130.026H124.648V128.636H131.079C131.079 128.045 130.961 127.518 130.725 127.055C130.493 126.592 130.161 126.226 129.73 125.958C129.303 125.69 128.799 125.556 128.218 125.556C127.577 125.556 127.023 125.715 126.555 126.033C126.092 126.347 125.735 126.755 125.486 127.26C125.236 127.764 125.111 128.304 125.111 128.881V129.808C125.111 130.598 125.247 131.268 125.52 131.817C125.797 132.362 126.18 132.778 126.671 133.064C127.162 133.346 127.732 133.487 128.381 133.487C128.803 133.487 129.185 133.428 129.526 133.309C129.871 133.187 130.168 133.005 130.418 132.764C130.668 132.519 130.861 132.215 130.997 131.851L132.551 132.288C132.387 132.814 132.112 133.278 131.726 133.677C131.34 134.073 130.863 134.381 130.295 134.604C129.728 134.822 129.09 134.931 128.381 134.931ZM134.138 137.711V133.214H135.011C135.224 132.992 135.408 132.751 135.562 132.492C135.717 132.233 135.851 131.926 135.964 131.572C136.082 131.213 136.182 130.777 136.264 130.264C136.346 129.746 136.419 129.122 136.482 128.391L136.836 124.248H143.486V133.214H145.094V137.711H143.486V134.713H135.746V137.711H134.138ZM136.836 133.214H141.878V125.747H138.335L138.063 128.391C137.949 129.485 137.808 130.441 137.64 131.259C137.472 132.076 137.204 132.728 136.836 133.214ZM146.67 134.713L150.921 129.399L146.724 124.248H148.632L152.12 128.718H152.992V124.248H154.6V128.718H155.445L158.933 124.248H160.841L156.671 129.399L160.895 134.713H158.96L155.417 130.216H154.6V134.713H152.992V130.216H152.175L148.605 134.713H146.67ZM167.245 134.931C166.237 134.931 165.367 134.708 164.636 134.263C163.909 133.814 163.348 133.187 162.953 132.383C162.563 131.574 162.367 130.634 162.367 129.562C162.367 128.49 162.563 127.546 162.953 126.728C163.348 125.906 163.898 125.266 164.602 124.807C165.31 124.344 166.137 124.112 167.082 124.112C167.627 124.112 168.165 124.203 168.696 124.385C169.228 124.566 169.712 124.861 170.148 125.27C170.584 125.674 170.931 126.21 171.19 126.878C171.449 127.546 171.578 128.368 171.578 129.344V130.026H163.512V128.636H169.943C169.943 128.045 169.825 127.518 169.589 127.055C169.357 126.592 169.026 126.226 168.594 125.958C168.167 125.69 167.663 125.556 167.082 125.556C166.441 125.556 165.887 125.715 165.419 126.033C164.956 126.347 164.6 126.755 164.35 127.26C164.1 127.764 163.975 128.304 163.975 128.881V129.808C163.975 130.598 164.111 131.268 164.384 131.817C164.661 132.362 165.045 132.778 165.535 133.064C166.026 133.346 166.596 133.487 167.245 133.487C167.668 133.487 168.049 133.428 168.39 133.309C168.735 133.187 169.033 133.005 169.282 132.764C169.532 132.519 169.725 132.215 169.861 131.851L171.415 132.288C171.251 132.814 170.976 133.278 170.59 133.677C170.204 134.073 169.727 134.381 169.16 134.604C168.592 134.822 167.954 134.931 167.245 134.931ZM174.12 138.637V124.248H175.673V125.911H175.864C175.982 125.729 176.146 125.497 176.355 125.216C176.568 124.93 176.872 124.675 177.268 124.453C177.667 124.226 178.208 124.112 178.889 124.112C179.77 124.112 180.547 124.332 181.219 124.773C181.891 125.213 182.416 125.838 182.793 126.646C183.17 127.455 183.358 128.409 183.358 129.508C183.358 130.616 183.17 131.577 182.793 132.39C182.416 133.198 181.894 133.825 181.226 134.27C180.558 134.711 179.788 134.931 178.916 134.931C178.244 134.931 177.706 134.82 177.302 134.597C176.897 134.37 176.586 134.113 176.368 133.827C176.15 133.537 175.982 133.296 175.864 133.105H175.728V138.637H174.12ZM175.701 129.481C175.701 130.271 175.816 130.968 176.048 131.572C176.28 132.172 176.618 132.642 177.063 132.982C177.508 133.319 178.053 133.487 178.698 133.487C179.371 133.487 179.931 133.309 180.381 132.955C180.835 132.596 181.176 132.115 181.403 131.511C181.635 130.902 181.751 130.225 181.751 129.481C181.751 128.745 181.637 128.082 181.41 127.491C181.187 126.896 180.849 126.426 180.395 126.081C179.945 125.731 179.38 125.556 178.698 125.556C178.044 125.556 177.495 125.722 177.05 126.054C176.604 126.381 176.268 126.839 176.041 127.43C175.814 128.016 175.701 128.699 175.701 129.481Z" fill="white"/>
</g>
<defs>
<filter id="filter0_b_124_517" x="-11.1155" y="18.8845" width="177.231" height="58.2311" filterUnits="userSpaceOnUse" color-interpolation-filters="sRGB">
<feFlood flood-opacity="0" result="BackgroundImageFix"/>
<feGaussianBlur in="BackgroundImageFix" stdDeviation="9.55777"/>
<feComposite in2="SourceAlpha" operator="in" result="effect1_backgroundBlur_124_517"/>
<feBlend mode="normal" in="SourceGraphic" in2="effect1_backgroundBlur_124_517" result="shape"/>
</filter>
<filter id="filter1_b_124_517" x="147.884" y="61.8845" width="183.231" height="59.2311" filterUnits="userSpaceOnUse" color-interpolation-filters="sRGB">
<feFlood flood-opacity="0" result="BackgroundImageFix"/>
<feGaussianBlur in="BackgroundImageFix" stdDeviation="9.55777"/>
<feComposite in2="SourceAlpha" operator="in" result="effect1_backgroundBlur_124_517"/>
<feBlend mode="normal" in="SourceGraphic" in2="effect1_backgroundBlur_124_517" result="shape"/>
</filter>
<filter id="filter2_b_124_517" x="147.884" y="91.8845" width="183.231" height="59.2311" filterUnits="userSpaceOnUse" color-interpolation-filters="sRGB">
<feFlood flood-opacity="0" result="BackgroundImageFix"/>
<feGaussianBlur in="BackgroundImageFix" stdDeviation="9.55777"/>
<feComposite in2="SourceAlpha" operator="in" result="effect1_backgroundBlur_124_517"/>
<feBlend mode="normal" in="SourceGraphic" in2="effect1_backgroundBlur_124_517" result="shape"/>
</filter>
<filter id="filter3_b_124_517" x="147.884" y="121.884" width="183.231" height="59.2311" filterUnits="userSpaceOnUse" color-interpolation-filters="sRGB">
<feFlood flood-opacity="0" result="BackgroundImageFix"/>
<feGaussianBlur in="BackgroundImageFix" stdDeviation="9.55777"/>
<feComposite in2="SourceAlpha" operator="in" result="effect1_backgroundBlur_124_517"/>
<feBlend mode="normal" in="SourceGraphic" in2="effect1_backgroundBlur_124_517" result="shape"/>
</filter>
<filter id="filter4_b_124_517" x="-11.1155" y="77.8845" width="177.231" height="103.231" filterUnits="userSpaceOnUse" color-interpolation-filters="sRGB">
<feFlood flood-opacity="0" result="BackgroundImageFix"/>
<feGaussianBlur in="BackgroundImageFix" stdDeviation="9.55777"/>
<feComposite in2="SourceAlpha" operator="in" result="effect1_backgroundBlur_124_517"/>
<feBlend mode="normal" in="SourceGraphic" in2="effect1_backgroundBlur_124_517" result="shape"/>
</filter>
<filter id="filter5_b_124_517" x="147.884" y="18.8845" width="183.231" height="72.2311" filterUnits="userSpaceOnUse" color-interpolation-filters="sRGB">
<feFlood flood-opacity="0" result="BackgroundImageFix"/>
<feGaussianBlur in="BackgroundImageFix" stdDeviation="9.55777"/>
<feComposite in2="SourceAlpha" operator="in" result="effect1_backgroundBlur_124_517"/>
<feBlend mode="normal" in="SourceGraphic" in2="effect1_backgroundBlur_124_517" result="shape"/>
</filter>
<filter id="filter6_d_124_517" x="44.0556" y="74.2356" width="47.982" height="53.7987" filterUnits="userSpaceOnUse" color-interpolation-filters="sRGB">
<feFlood flood-opacity="0" result="BackgroundImageFix"/>
<feColorMatrix in="SourceAlpha" type="matrix" values="0 0 0 0 0 0 0 0 0 0 0 0 0 0 0 0 0 0 127 0" result="hardAlpha"/>
<feOffset dy="4.09153"/>
<feGaussianBlur stdDeviation="4.09153"/>
<feColorMatrix type="matrix" values="0 0 0 0 0 0 0 0 0 0 0 0 0 0 0 0 0 0 0.12 0"/>
<feBlend mode="normal" in2="BackgroundImageFix" result="effect1_dropShadow_124_517"/>
<feBlend mode="normal" in="SourceGraphic" in2="effect1_dropShadow_124_517" result="shape"/>
</filter>
<filter id="filter7_d_124_517" x="66.4281" y="108.51" width="134.811" height="47.5884" filterUnits="userSpaceOnUse" color-interpolation-filters="sRGB">
<feFlood flood-opacity="0" result="BackgroundImageFix"/>
<feColorMatrix in="SourceAlpha" type="matrix" values="0 0 0 0 0 0 0 0 0 0 0 0 0 0 0 0 0 0 127 0" result="hardAlpha"/>
<feOffset dy="4.09153"/>
<feGaussianBlur stdDeviation="4.09153"/>
<feColorMatrix type="matrix" values="0 0 0 0 0 0 0 0 0 0 0 0 0 0 0 0 0 0 0.12 0"/>
<feBlend mode="normal" in2="BackgroundImageFix" result="effect1_dropShadow_124_517"/>
<feBlend mode="normal" in="SourceGraphic" in2="effect1_dropShadow_124_517" result="shape"/>
</filter>
<linearGradient id="paint0_linear_124_517" x1="146" y1="42.7888" x2="-33.9864" y2="113.072" gradientUnits="userSpaceOnUse">
<stop stop-color="white" stop-opacity="0.79"/>
<stop offset="1" stop-color="white" stop-opacity="0.16"/>
</linearGradient>
<linearGradient id="paint1_linear_124_517" x1="19.5" y1="60" x2="142.5" y2="102.5" gradientUnits="userSpaceOnUse">
<stop stop-color="#AEED6C"/>
<stop offset="1" stop-color="#70B725"/>
</linearGradient>
<linearGradient id="paint2_linear_124_517" x1="311" y1="85.9993" x2="122.579" y2="158.757" gradientUnits="userSpaceOnUse">
<stop stop-color="white" stop-opacity="0.79"/>
<stop offset="1" stop-color="white" stop-opacity="0.16"/>
</linearGradient>
<linearGradient id="paint3_linear_124_517" x1="311" y1="115.999" x2="122.579" y2="188.757" gradientUnits="userSpaceOnUse">
<stop stop-color="white" stop-opacity="0.79"/>
<stop offset="1" stop-color="white" stop-opacity="0.16"/>
</linearGradient>
<linearGradient id="paint4_linear_124_517" x1="311" y1="145.999" x2="122.579" y2="218.757" gradientUnits="userSpaceOnUse">
<stop stop-color="white" stop-opacity="0.79"/>
<stop offset="1" stop-color="white" stop-opacity="0.16"/>
</linearGradient>
<linearGradient id="paint5_linear_124_517" x1="146" y1="111.261" x2="-58.8814" y2="134.119" gradientUnits="userSpaceOnUse">
<stop stop-color="white" stop-opacity="0.79"/>
<stop offset="1" stop-color="white" stop-opacity="0.16"/>
</linearGradient>
<linearGradient id="paint6_linear_124_517" x1="311" y1="45.7357" x2="105.297" y2="92.8978" gradientUnits="userSpaceOnUse">
<stop stop-color="white" stop-opacity="0.79"/>
<stop offset="1" stop-color="white" stop-opacity="0.16"/>
</linearGradient>
</defs>
</svg>
