<svg width="320" height="200" viewBox="0 0 320 200" fill="none" xmlns="http://www.w3.org/2000/svg">
<g clip-path="url(#clip0_124_550)">
<g filter="url(#filter0_b_124_550)">
<path d="M264.077 68.9442L129.297 19.7819C119.728 16.2915 109.141 21.2192 105.651 30.7883L76.6207 110.375C73.1302 119.945 78.058 130.531 87.6271 134.022L222.406 183.184C231.976 186.675 242.562 181.747 246.053 172.178L275.083 92.5906C278.574 83.0215 273.646 72.4346 264.077 68.9442Z" fill="url(#paint0_linear_124_550)"/>
<path d="M264.233 68.517L129.453 19.3548C119.648 15.7783 108.8 20.8275 105.224 30.6325L76.1935 110.22C72.617 120.025 77.6662 130.873 87.4713 134.449L222.251 183.611C232.056 187.188 242.903 182.139 246.48 172.334L275.51 92.7464C279.087 82.9414 274.038 72.0935 264.233 68.517Z" stroke="white" stroke-width="0.909354"/>
</g>
<path d="M272.409 99.9457L102.977 38.1435L94.2431 62.0863L263.675 123.889L272.409 99.9457Z" fill="#4E9700" fill-opacity="0.32"/>
<path d="M154.47 129.336C154.47 129.613 140.467 124.825 123.421 118.651C106.374 112.477 92.5997 107.236 92.7012 106.959C92.8027 106.681 106.704 111.469 123.776 117.643C140.848 123.817 154.571 129.059 154.47 129.336Z" fill="#272A30"/>
<path d="M169.403 128.657C169.403 128.935 152.51 123.079 131.893 115.583C111.276 108.087 94.6362 101.802 94.7375 101.525C94.8388 101.247 111.631 107.103 132.248 114.599C152.864 122.095 169.504 128.43 169.403 128.657Z" fill="#272A30"/>
<path d="M227.581 134.773L213.653 129.693C211.874 129.044 209.907 129.96 209.258 131.738L204.178 145.667C203.529 147.445 204.445 149.412 206.223 150.061L220.152 155.141C221.93 155.79 223.897 154.874 224.546 153.096L229.626 139.168C230.275 137.389 229.359 135.422 227.581 134.773Z" fill="#272A30"/>
<path d="M227.129 45.9998L84.5728 29.8718C74.4516 28.7268 65.3184 36.0034 64.1734 46.1247L54.6498 130.304C53.5048 140.425 60.7814 149.559 70.9027 150.704L213.459 166.832C223.58 167.977 232.713 160.7 233.858 150.579L243.382 66.3992C244.527 56.278 237.25 47.1448 227.129 45.9998Z" fill="#454B55"/>
<path d="M227.129 45.9998L84.5728 29.8718C74.4516 28.7268 65.3184 36.0034 64.1734 46.1247L54.6498 130.304C53.5048 140.425 60.7814 149.559 70.9027 150.704L213.459 166.832C223.58 167.977 232.713 160.7 233.858 150.579L243.382 66.3992C244.527 56.278 237.25 47.1448 227.129 45.9998Z" fill="url(#paint1_linear_124_550)"/>
<path d="M242.51 74.1759L63.3014 53.9014L60.4363 79.2257L239.645 99.5002L242.51 74.1759Z" fill="#4E9700"/>
<path d="M134.774 130.447C134.839 130.717 120.104 129.352 102.084 127.355C84.0643 125.358 69.4443 123.499 69.4778 123.205C69.5113 122.912 84.1481 124.301 102.193 126.292C120.237 128.283 134.808 130.154 134.774 130.447Z" fill="#4E9700"/>
<path d="M149.13 126.279C149.196 126.549 131.399 124.825 109.599 122.382C87.7983 119.938 70.1475 117.738 70.1807 117.444C70.214 117.15 87.9117 118.898 109.712 121.341C131.513 123.785 149.176 126.034 149.13 126.279Z" fill="#4E9700"/>
<path d="M207.117 118.557L192.385 116.89C190.504 116.677 188.807 118.03 188.594 119.91L186.927 134.643C186.715 136.523 188.067 138.221 189.948 138.433L204.68 140.1C206.561 140.313 208.258 138.961 208.471 137.08L210.137 122.348C210.35 120.467 208.998 118.77 207.117 118.557Z" fill="#4E9700"/>
</g>
<defs>
<filter id="filter0_b_124_550" x="57.2066" y="0.367844" width="237.291" height="202.23" filterUnits="userSpaceOnUse" color-interpolation-filters="sRGB">
<feFlood flood-opacity="0" result="BackgroundImageFix"/>
<feGaussianBlur in="BackgroundImageFix" stdDeviation="8.6914"/>
<feComposite in2="SourceAlpha" operator="in" result="effect1_backgroundBlur_124_550"/>
<feBlend mode="normal" in="SourceGraphic" in2="effect1_backgroundBlur_124_550" result="shape"/>
</filter>
<linearGradient id="paint0_linear_124_550" x1="272.632" y1="99.3106" x2="10.4921" y2="25.6827" gradientUnits="userSpaceOnUse">
<stop stop-color="white" stop-opacity="0.79"/>
<stop offset="1" stop-color="white" stop-opacity="0.16"/>
</linearGradient>
<linearGradient id="paint1_linear_124_550" x1="183.015" y1="46.1715" x2="154.485" y2="161.803" gradientUnits="userSpaceOnUse">
<stop stop-color="#AEED6C"/>
<stop offset="1" stop-color="#70B725"/>
</linearGradient>
<clipPath id="clip0_124_550">
<rect width="320" height="200" fill="white"/>
</clipPath>
</defs>
</svg>
